<svg width="19" height="19" viewBox="0 0 19 19" fill="none" xmlns="http://www.w3.org/2000/svg">
<path fill-rule="evenodd" clip-rule="evenodd" d="M15.0417 8.70833H7.125C6.68777 8.70833 6.33333 9.06277 6.33333 9.5V12.6667C6.33333 13.1039 6.68777 13.4583 7.125 13.4583H15.0417C15.4789 13.4583 15.8333 13.1039 15.8333 12.6667V9.5C15.8333 9.06277 15.4789 8.70833 15.0417 8.70833ZM7.125 7.125C5.81332 7.125 4.75 8.18832 4.75 9.5V12.6667C4.75 13.9783 5.81332 15.0417 7.125 15.0417H15.0417C16.3533 15.0417 17.4167 13.9783 17.4167 12.6667V9.5C17.4167 8.18832 16.3533 7.125 15.0417 7.125H7.125Z" fill="#64748B"/>
<path fill-rule="evenodd" clip-rule="evenodd" d="M3.95831 5.54183H11.875C12.3122 5.54183 12.6666 5.89627 12.6666 6.3335V7.12516H14.25V6.3335C14.25 5.02182 13.1867 3.9585 11.875 3.9585H3.95831C2.64664 3.9585 1.58331 5.02182 1.58331 6.3335V9.50016C1.58331 10.8118 2.64664 11.8752 3.95831 11.8752H4.74998V10.2918H3.95831C3.52109 10.2918 3.16665 9.93739 3.16665 9.50016V6.3335C3.16665 5.89627 3.52109 5.54183 3.95831 5.54183Z" fill="#64748B"/>
<path fill-rule="evenodd" clip-rule="evenodd" d="M11.0833 12.6667C11.9578 12.6667 12.6667 11.9578 12.6667 11.0833C12.6667 10.2089 11.9578 9.5 11.0833 9.5C10.2089 9.5 9.5 10.2089 9.5 11.0833C9.5 11.9578 10.2089 12.6667 11.0833 12.6667Z" fill="#64748B"/>
<path d="M8.70833 11.0832C8.70833 11.5204 8.35389 11.8748 7.91667 11.8748C7.47944 11.8748 7.125 11.5204 7.125 11.0832C7.125 10.6459 7.47944 10.2915 7.91667 10.2915C8.35389 10.2915 8.70833 10.6459 8.70833 11.0832Z" fill="#64748B"/>
<path d="M15.0416 11.0832C15.0416 11.5204 14.6872 11.8748 14.25 11.8748C13.8128 11.8748 13.4583 11.5204 13.4583 11.0832C13.4583 10.6459 13.8128 10.2915 14.25 10.2915C14.6872 10.2915 15.0416 10.6459 15.0416 11.0832Z" fill="#64748B"/>
</svg>
