<svg width="12" height="12" viewBox="0 0 12 12" fill="none" xmlns="http://www.w3.org/2000/svg">
<path fill-rule="evenodd" clip-rule="evenodd" d="M3.08335 0.166748C3.40552 0.166748 3.66669 0.427915 3.66669 0.750081V1.33341H8.33335V0.750081C8.33335 0.427915 8.59452 0.166748 8.91669 0.166748C9.23885 0.166748 9.50002 0.427915 9.50002 0.750081V1.33341H10.0834C11.0499 1.33341 11.8334 2.11692 11.8334 3.08341V10.0834C11.8334 11.0499 11.0499 11.8334 10.0834 11.8334H1.91669C0.950188 11.8334 0.166687 11.0499 0.166687 10.0834V3.08341C0.166687 2.11692 0.950189 1.33341 1.91669 1.33341H2.50002V0.750081C2.50002 0.427915 2.76119 0.166748 3.08335 0.166748ZM8.33335 2.50008V3.08341C8.33335 3.40558 8.59452 3.66675 8.91669 3.66675C9.23885 3.66675 9.50002 3.40558 9.50002 3.08341V2.50008H10.0834C10.4055 2.50008 10.6667 2.76125 10.6667 3.08341V4.83341H1.33335V3.08341C1.33335 2.76125 1.59452 2.50008 1.91669 2.50008H2.50002V3.08341C2.50002 3.40558 2.76119 3.66675 3.08335 3.66675C3.40552 3.66675 3.66669 3.40558 3.66669 3.08341V2.50008H8.33335ZM1.33335 6.00008V10.0834C1.33335 10.4056 1.59452 10.6667 1.91669 10.6667H10.0834C10.4055 10.6667 10.6667 10.4056 10.6667 10.0834V6.00008H1.33335Z" fill="#6F767E"/>
</svg>
