<svg width="3" height="11" viewBox="0 0 3 11" fill="none" xmlns="http://www.w3.org/2000/svg">
<path fill-rule="evenodd" clip-rule="evenodd" d="M2.79992 1.94745C2.79992 1.38859 2.3459 0.93457 1.78873 0.93457C1.23071 0.93457 0.775847 1.38859 0.775847 1.94745C0.775847 2.50631 1.23071 2.96034 1.78873 2.96034C2.3459 2.96034 2.79992 2.50631 2.79992 1.94745ZM2.79993 5.7335C2.79993 5.17464 2.34591 4.72062 1.78874 4.72062C1.23072 4.72062 0.775852 5.17464 0.775852 5.7335C0.775852 6.29236 1.23072 6.74638 1.78874 6.74638C2.34591 6.74638 2.79993 6.29236 2.79993 5.7335ZM1.78874 8.5073C2.34591 8.5073 2.79993 8.96132 2.79993 9.52019C2.79993 10.079 2.34591 10.5331 1.78874 10.5331C1.23072 10.5331 0.775852 10.079 0.775852 9.52019C0.775852 8.96132 1.23072 8.5073 1.78874 8.5073Z" fill="#15416E"/>
</svg>
