<svg width="14" height="15" viewBox="0 0 14 15" fill="none" xmlns="http://www.w3.org/2000/svg">
<path d="M7 8.3335C8.10457 8.3335 9 7.43807 9 6.3335C9 5.22893 8.10457 4.3335 7 4.3335C5.89543 4.3335 5 5.22893 5 6.3335C5 7.43807 5.89543 8.3335 7 8.3335Z" stroke="#64748B" stroke-width="1.5" stroke-linecap="round" stroke-linejoin="round"/>
<path d="M10.7714 10.1047L7.94269 12.9334C7.69268 13.1831 7.35375 13.3234 7.00036 13.3234C6.64697 13.3234 6.30803 13.1831 6.05802 12.9334L3.22869 10.1047C2.48284 9.35882 1.97491 8.40852 1.76915 7.37396C1.56338 6.3394 1.66902 5.26706 2.07269 4.29254C2.47637 3.31801 3.15995 2.48508 4.03701 1.89905C4.91407 1.31303 5.9452 1.00024 7.00002 1.00024C8.05485 1.00024 9.08598 1.31303 9.96304 1.89905C10.8401 2.48508 11.5237 3.31801 11.9274 4.29254C12.331 5.26706 12.4367 6.3394 12.2309 7.37396C12.0251 8.40852 11.5172 9.35882 10.7714 10.1047V10.1047Z" stroke="#64748B" stroke-width="1.5" stroke-linecap="round" stroke-linejoin="round"/>
</svg>
